{
	"asset":{
		"generator":"Khronos glTF Blender I/O v4.0.44",
		"version":"2.0"
	},
	"scene":0,
	"scenes":[
		{
			"name":"Scene",
			"nodes":[
				5
			]
		}
	],
	"nodes":[
		{
			"mesh":0,
			"name":"Object_4",
			"scale":[
				9.000000953674316,
				9,
				9
			],
			"translation":[
				10,
				0,
				18
			]
		},
		{
			"mesh":1,
			"name":"Object_5"
		},
		{
			"children":[
				0,
				1
			],
			"name":"EyeSet9_0",
			"rotation":[
				0.70710688829422,
				0,
				0,
				0.7071066498756409
			],
			"scale":[
				0.09999999403953552,
				0.10000000894069672,
				0.10000000894069672
			],
			"translation":[
				0.12396320700645447,
				0,
				0
			]
		},
		{
			"children":[
				2
			],
			"name":"GLTF_SceneRootNode",
			"rotation":[
				0.70710688829422,
				0,
				0,
				0.7071066498756409
			]
		},
		{
			"children":[
				3
			],
			"name":"root"
		},
		{
			"children":[
				4
			],
			"name":"Sketchfab_model",
			"rotation":[
				-0.70710688829422,
				0,
				0,
				0.7071066498756409
			]
		}
	],
	"materials":[
		{
			"doubleSided":true,
			"emissiveFactor":[
				1,
				1,
				1
			],
			"emissiveTexture":{
				"index":0,
				"texCoord":2
			},
			"name":"EyeSet9",
			"normalTexture":{
				"index":1
			},
			"pbrMetallicRoughness":{
				"baseColorTexture":{
					"index":2
				},
				"metallicRoughnessTexture":{
					"index":3,
					"texCoord":1
				}
			}
		}
	],
	"meshes":[
		{
			"name":"Object_0",
			"primitives":[
				{
					"attributes":{
						"POSITION":0,
						"NORMAL":1,
						"TEXCOORD_0":2,
						"TEXCOORD_1":3,
						"TEXCOORD_2":4,
						"TEXCOORD_3":5
					},
					"indices":6,
					"material":0
				}
			]
		},
		{
			"name":"Object_1",
			"primitives":[
				{
					"attributes":{
						"POSITION":7,
						"NORMAL":8,
						"TEXCOORD_0":9,
						"TEXCOORD_1":10,
						"TEXCOORD_2":11,
						"TEXCOORD_3":12
					},
					"indices":13,
					"material":0
				}
			]
		}
	],
	"textures":[
		{
			"sampler":0,
			"source":0
		},
		{
			"sampler":0,
			"source":1
		},
		{
			"sampler":0,
			"source":2
		},
		{
			"sampler":0,
			"source":3
		}
	],
	"images":[
		{
			"mimeType":"image/png",
			"name":"EyeSet9_emissive",
			"uri":"EyeSet9_emissive.png"
		},
		{
			"mimeType":"image/png",
			"name":"EyeSet9_normal",
			"uri":"EyeSet9_normal.png"
		},
		{
			"mimeType":"image/png",
			"name":"EyeSet9_baseColor",
			"uri":"EyeSet9_baseColor.png"
		},
		{
			"mimeType":"image/png",
			"name":"EyeSet9_metallicRoughness",
			"uri":"EyeSet9_metallicRoughness.png"
		}
	],
	"accessors":[
		{
			"bufferView":0,
			"componentType":5126,
			"count":65532,
			"max":[
				0.9993973970413208,
				0.9993976950645447,
				-1.200015664100647
			],
			"min":[
				-3.4993972778320312,
				-0.9993975758552551,
				-3.199984073638916
			],
			"type":"VEC3"
		},
		{
			"bufferView":1,
			"componentType":5126,
			"count":65532,
			"type":"VEC3"
		},
		{
			"bufferView":2,
			"componentType":5126,
			"count":65532,
			"type":"VEC2"
		},
		{
			"bufferView":3,
			"componentType":5126,
			"count":65532,
			"type":"VEC2"
		},
		{
			"bufferView":4,
			"componentType":5126,
			"count":65532,
			"type":"VEC2"
		},
		{
			"bufferView":5,
			"componentType":5126,
			"count":65532,
			"type":"VEC2"
		},
		{
			"bufferView":6,
			"componentType":5123,
			"count":383925,
			"type":"SCALAR"
		},
		{
			"bufferView":7,
			"componentType":5126,
			"count":2514,
			"max":[
				0.05106675624847412,
				0.07349775731563568,
				-1.200015664100647
			],
			"min":[
				-2.573497772216797,
				-0.9993975758552551,
				-3.199984073638916
			],
			"type":"VEC3"
		},
		{
			"bufferView":8,
			"componentType":5126,
			"count":2514,
			"type":"VEC3"
		},
		{
			"bufferView":9,
			"componentType":5126,
			"count":2514,
			"type":"VEC2"
		},
		{
			"bufferView":10,
			"componentType":5126,
			"count":2514,
			"type":"VEC2"
		},
		{
			"bufferView":11,
			"componentType":5126,
			"count":2514,
			"type":"VEC2"
		},
		{
			"bufferView":12,
			"componentType":5126,
			"count":2514,
			"type":"VEC2"
		},
		{
			"bufferView":13,
			"componentType":5123,
			"count":6219,
			"type":"SCALAR"
		}
	],
	"bufferViews":[
		{
			"buffer":0,
			"byteLength":786384,
			"byteOffset":0,
			"target":34962
		},
		{
			"buffer":0,
			"byteLength":786384,
			"byteOffset":786384,
			"target":34962
		},
		{
			"buffer":0,
			"byteLength":524256,
			"byteOffset":1572768,
			"target":34962
		},
		{
			"buffer":0,
			"byteLength":524256,
			"byteOffset":2097024,
			"target":34962
		},
		{
			"buffer":0,
			"byteLength":524256,
			"byteOffset":2621280,
			"target":34962
		},
		{
			"buffer":0,
			"byteLength":524256,
			"byteOffset":3145536,
			"target":34962
		},
		{
			"buffer":0,
			"byteLength":767850,
			"byteOffset":3669792,
			"target":34963
		},
		{
			"buffer":0,
			"byteLength":30168,
			"byteOffset":4437644,
			"target":34962
		},
		{
			"buffer":0,
			"byteLength":30168,
			"byteOffset":4467812,
			"target":34962
		},
		{
			"buffer":0,
			"byteLength":20112,
			"byteOffset":4497980,
			"target":34962
		},
		{
			"buffer":0,
			"byteLength":20112,
			"byteOffset":4518092,
			"target":34962
		},
		{
			"buffer":0,
			"byteLength":20112,
			"byteOffset":4538204,
			"target":34962
		},
		{
			"buffer":0,
			"byteLength":20112,
			"byteOffset":4558316,
			"target":34962
		},
		{
			"buffer":0,
			"byteLength":12438,
			"byteOffset":4578428,
			"target":34963
		}
	],
	"samplers":[
		{
			"magFilter":9729,
			"minFilter":9987
		}
	],
	"buffers":[
		{
			"byteLength":4590868,
			"uri":"scene.bin"
		}
	]
}
