{
  "accessors": [
    {
      "bufferView": 2,
      "componentType": 5126,
      "count": 2497,
      "max": [
        0.9872313141822815,
        0.9872313737869263,
        1.1018710136413574
      ],
      "min": [
        -0.9872308969497681,
        -0.9872313141822815,
        -0.9975765347480774
      ],
      "type": "VEC3"
    },
    {
      "bufferView": 2,
      "byteOffset": 29964,
      "componentType": 5126,
      "count": 2497,
      "max": [
        1.0,
        1.0,
        0.999949038028717
      ],
      "min": [
        -1.0,
        -1.0,
        -1.0
      ],
      "type": "VEC3"
    },
    {
      "bufferView": 1,
      "componentType": 5126,
      "count": 2497,
      "max": [
        1.0000003576278687,
        0.9375002980232239
      ],
      "min": [
        0.0,
        0.0
      ],
      "type": "VEC2"
    },
    {
      "bufferView": 0,
      "componentType": 5125,
      "count": 12864,
      "type": "SCALAR"
    },
    {
      "bufferView": 2,
      "byteOffset": 59928,
      "componentType": 5126,
      "count": 16009,
      "max": [
        0.5794721841812134,
        0.579580545425415,
        0.8337685465812683
      ],
      "min": [
        -0.5793136954307556,
        -0.5792689323425293,
        0.7048758864402771
      ],
      "type": "VEC3"
    },
    {
      "bufferView": 2,
      "byteOffset": 252036,
      "componentType": 5126,
      "count": 16009,
      "max": [
        0.994522213935852,
        0.7496468424797058,
        0.9990250468254089
      ],
      "min": [
        -0.9903997182846069,
        -0.782250702381134,
        -0.9999997019767761
      ],
      "type": "VEC3"
    },
    {
      "bufferView": 1,
      "byteOffset": 19976,
      "componentType": 5126,
      "count": 16009,
      "max": [
        0.9999570846557617,
        1.0015978813171387
      ],
      "min": [
        -4.279613494873047e-05,
        0.0015978217124938965
      ],
      "type": "VEC2"
    },
    {
      "bufferView": 1,
      "byteOffset": 148048,
      "componentType": 5126,
      "count": 16009,
      "max": [
        0.9999570846557617,
        1.0015978813171387
      ],
      "min": [
        -4.279613494873047e-05,
        0.0015978217124938965
      ],
      "type": "VEC2"
    },
    {
      "bufferView": 0,
      "byteOffset": 51456,
      "componentType": 5125,
      "count": 95232,
      "type": "SCALAR"
    }
  ],
  "asset": {
    "extras": {
      "author": "ewa_podermanska (https://sketchfab.com/ewapodermanska)",
      "license": "CC-BY-4.0 (http://creativecommons.org/licenses/by/4.0/)",
      "source": "https://sketchfab.com/3d-models/illusion-eyeball-blender-file-8574614eaf694f7eab968da2b7bd0608",
      "title": "Illusion eyeball - blender file"
    },
    "generator": "Sketchfab-14.7.0",
    "version": "2.0"
  },
  "bufferViews": [
    {
      "buffer": 0,
      "byteLength": 432384,
      "name": "floatBufferViews",
      "target": 34963
    },
    {
      "buffer": 0,
      "byteLength": 276120,
      "byteOffset": 432384,
      "byteStride": 8,
      "name": "floatBufferViews",
      "target": 34962
    },
    {
      "buffer": 0,
      "byteLength": 444144,
      "byteOffset": 708504,
      "byteStride": 12,
      "name": "floatBufferViews",
      "target": 34962
    }
  ],
  "buffers": [
    {
      "byteLength": 1152648,
      "uri": "scene.bin"
    }
  ],
  "extensionsUsed": [
    "KHR_materials_transmission"
  ],
  "images": [
    {
      "uri": "textures/EYE-ILLUSION_baseColor.png"
    },
    {
      "uri": "textures/EYE-ILLUSION_emissive.png"
    },
    {
      "uri": "textures/EYE-ILLUSION_transmission.png"
    },
    {
      "uri": "textures/irys_baseColor.png"
    },
    {
      "uri": "textures/irys_emissive.png"
    }
  ],
  "materials": [
    {
      "alphaMode": "BLEND",
      "doubleSided": true,
      "emissiveFactor": [
        1.0,
        1.0,
        1.0
      ],
      "emissiveTexture": {
        "index": 1
      },
      "extensions": {
        "KHR_materials_transmission": {
          "transmissionFactor": 1.0,
          "transmissionTexture": {
            "index": 2
          }
        }
      },
      "name": "EYE-ILLUSION",
      "pbrMetallicRoughness": {
        "baseColorTexture": {
          "index": 0
        },
        "metallicFactor": 0.0,
        "roughnessFactor": 0.12038131925735392
      }
    },
    {
      "doubleSided": true,
      "emissiveFactor": [
        1.0,
        1.0,
        1.0
      ],
      "emissiveTexture": {
        "index": 4
      },
      "name": "irys",
      "pbrMetallicRoughness": {
        "baseColorTexture": {
          "index": 3
        },
        "metallicFactor": 0.0
      }
    }
  ],
  "meshes": [
    {
      "name": "Object_0",
      "primitives": [
        {
          "attributes": {
            "NORMAL": 1,
            "POSITION": 0,
            "TEXCOORD_0": 2
          },
          "indices": 3,
          "material": 0,
          "mode": 4
        }
      ]
    },
    {
      "name": "Object_1",
      "primitives": [
        {
          "attributes": {
            "NORMAL": 5,
            "POSITION": 4,
            "TEXCOORD_0": 6,
            "TEXCOORD_1": 7
          },
          "indices": 8,
          "material": 1,
          "mode": 4
        }
      ]
    }
  ],
  "nodes": [
    {
      "children": [
        1
      ],
      "matrix": [
        0.07227416336536407,
        0.0,
        0.0,
        0.0,
        0.0,
        1.6048088050749437e-17,
        -0.07227416336536407,
        0.0,
        0.0,
        0.07227416336536407,
        1.6048088050749437e-17,
        0.0,
        0.0,
        0.0,
        0.0,
        1.0
      ],
      "name": "Sketchfab_model"
    },
    {
      "children": [
        2
      ],
      "name": "root"
    },
    {
      "children": [
        3
      ],
      "matrix": [
        1.0,
        0.0,
        0.0,
        0.0,
        0.0,
        2.220446049250313e-16,
        1.0,
        0.0,
        0.0,
        -1.0,
        2.220446049250313e-16,
        0.0,
        0.0,
        0.0,
        0.0,
        1.0
      ],
      "name": "GLTF_SceneRootNode"
    },
    {
      "children": [
        4,
        5
      ],
      "name": "eye-illusion_1"
    },
    {
      "mesh": 0,
      "name": "Object_4"
    },
    {
      "children": [
        6
      ],
      "matrix": [
        1.0718448162078857,
        0.0,
        0.0,
        0.0,
        0.0,
        1.0718448162078857,
        0.0,
        0.0,
        0.0,
        0.0,
        1.0718448162078857,
        0.0,
        0.0,
        0.0,
        -0.1369571089744568,
        1.0
      ],
      "name": "irys_0"
    },
    {
      "mesh": 1,
      "name": "Object_6"
    }
  ],
  "samplers": [
    {
      "magFilter": 9729,
      "minFilter": 9987,
      "wrapS": 10497,
      "wrapT": 10497
    }
  ],
  "scene": 0,
  "scenes": [
    {
      "name": "Sketchfab_Scene",
      "nodes": [
        0
      ]
    }
  ],
  "textures": [
    {
      "sampler": 0,
      "source": 0
    },
    {
      "sampler": 0,
      "source": 1
    },
    {
      "sampler": 0,
      "source": 2
    },
    {
      "sampler": 0,
      "source": 3
    },
    {
      "sampler": 0,
      "source": 4
    }
  ]
}
