{
	"asset":{
		"generator":"Khronos glTF Blender I/O v4.0.44",
		"version":"2.0"
	},
	"extensionsUsed":[
		"KHR_materials_transmission"
	],
	"scene":0,
	"scenes":[
		{
			"name":"Scene",
			"nodes":[
				6
			]
		}
	],
	"nodes":[
		{
			"mesh":0,
			"name":"Object_6",
			"scale":[
				13,
				13,
				13
			]
		},
		{
			"children":[
				0
			],
			"name":"irys_0",
			"scale":[
				1.0718448162078857,
				1.0718448162078857,
				1.0718448162078857
			],
			"translation":[
				0,
				0,
				-0.1369570940732956
			]
		},
		{
			"mesh":1,
			"name":"Object_4",
			"scale":[
				12.999999046325684,
				12.999999046325684,
				12.999999046325684
			]
		},
		{
			"children":[
				1,
				2
			],
			"name":"eye-illusion_1"
		},
		{
			"children":[
				3
			],
			"name":"GLTF_SceneRootNode",
			"rotation":[
				0.70710688829422,
				0,
				0,
				0.7071066498756409
			]
		},
		{
			"children":[
				4
			],
			"name":"root"
		},
		{
			"children":[
				5
			],
			"name":"Sketchfab_model",
			"rotation":[
				-0.7071067690849304,
				0,
				0,
				0.7071068286895752
			],
			"scale":[
				0.07227416336536407,
				0.07227416336536407,
				0.07227416336536407
			]
		}
	],
	"materials":[
		{
			"doubleSided":true,
			"emissiveFactor":[
				1,
				1,
				1
			],
			"emissiveTexture":{
				"index":0
			},
			"name":"irys",
			"pbrMetallicRoughness":{
				"baseColorTexture":{
					"index":1
				},
				"metallicFactor":0
			}
		},
		{
			"alphaMode":"BLEND",
			"doubleSided":true,
			"emissiveFactor":[
				1,
				1,
				1
			],
			"emissiveTexture":{
				"index":2
			},
			"extensions":{
				"KHR_materials_transmission":{
					"transmissionFactor":1,
					"transmissionTexture":{
						"index":3
					}
				}
			},
			"name":"EYE-ILLUSION",
			"pbrMetallicRoughness":{
				"baseColorTexture":{
					"index":4
				},
				"metallicFactor":0,
				"roughnessFactor":0.12038131803274155
			}
		}
	],
	"meshes":[
		{
			"name":"Object_1",
			"primitives":[
				{
					"attributes":{
						"POSITION":0,
						"NORMAL":1,
						"TEXCOORD_0":2,
						"TEXCOORD_1":3
					},
					"indices":4,
					"material":0
				}
			]
		},
		{
			"name":"Object_0",
			"primitives":[
				{
					"attributes":{
						"POSITION":5,
						"NORMAL":6,
						"TEXCOORD_0":7
					},
					"indices":8,
					"material":1
				}
			]
		}
	],
	"textures":[
		{
			"sampler":0,
			"source":0
		},
		{
			"sampler":0,
			"source":1
		},
		{
			"sampler":0,
			"source":2
		},
		{
			"sampler":0,
			"source":3
		},
		{
			"sampler":0,
			"source":4
		}
	],
	"images":[
		{
			"mimeType":"image/png",
			"name":"irys_emissive",
			"uri":"irys_emissive.png"
		},
		{
			"mimeType":"image/png",
			"name":"irys_baseColor",
			"uri":"irys_baseColor.png"
		},
		{
			"mimeType":"image/png",
			"name":"EYE-ILLUSION_emissive",
			"uri":"EYE-ILLUSION_emissive.png"
		},
		{
			"mimeType":"image/png",
			"name":"EYE-ILLUSION_transmission",
			"uri":"EYE-ILLUSION_transmission.png"
		},
		{
			"mimeType":"image/png",
			"name":"EYE-ILLUSION_baseColor",
			"uri":"EYE-ILLUSION_baseColor.png"
		}
	],
	"accessors":[
		{
			"bufferView":0,
			"componentType":5126,
			"count":16010,
			"max":[
				0.5794721841812134,
				0.579580545425415,
				0.8337685465812683
			],
			"min":[
				-0.5793136954307556,
				-0.5792689323425293,
				0.7048758864402771
			],
			"type":"VEC3"
		},
		{
			"bufferView":1,
			"componentType":5126,
			"count":16010,
			"type":"VEC3"
		},
		{
			"bufferView":2,
			"componentType":5126,
			"count":16010,
			"type":"VEC2"
		},
		{
			"bufferView":3,
			"componentType":5126,
			"count":16010,
			"type":"VEC2"
		},
		{
			"bufferView":4,
			"componentType":5123,
			"count":95232,
			"type":"SCALAR"
		},
		{
			"bufferView":5,
			"componentType":5126,
			"count":2501,
			"max":[
				0.9872313141822815,
				0.9872313737869263,
				1.1018710136413574
			],
			"min":[
				-0.9872308969497681,
				-0.9872313141822815,
				-0.9975765347480774
			],
			"type":"VEC3"
		},
		{
			"bufferView":6,
			"componentType":5126,
			"count":2501,
			"type":"VEC3"
		},
		{
			"bufferView":7,
			"componentType":5126,
			"count":2501,
			"type":"VEC2"
		},
		{
			"bufferView":8,
			"componentType":5123,
			"count":12864,
			"type":"SCALAR"
		}
	],
	"bufferViews":[
		{
			"buffer":0,
			"byteLength":192120,
			"byteOffset":0,
			"target":34962
		},
		{
			"buffer":0,
			"byteLength":192120,
			"byteOffset":192120,
			"target":34962
		},
		{
			"buffer":0,
			"byteLength":128080,
			"byteOffset":384240,
			"target":34962
		},
		{
			"buffer":0,
			"byteLength":128080,
			"byteOffset":512320,
			"target":34962
		},
		{
			"buffer":0,
			"byteLength":190464,
			"byteOffset":640400,
			"target":34963
		},
		{
			"buffer":0,
			"byteLength":30012,
			"byteOffset":830864,
			"target":34962
		},
		{
			"buffer":0,
			"byteLength":30012,
			"byteOffset":860876,
			"target":34962
		},
		{
			"buffer":0,
			"byteLength":20008,
			"byteOffset":890888,
			"target":34962
		},
		{
			"buffer":0,
			"byteLength":25728,
			"byteOffset":910896,
			"target":34963
		}
	],
	"samplers":[
		{
			"magFilter":9729,
			"minFilter":9987
		}
	],
	"buffers":[
		{
			"byteLength":936624,
			"uri":"scene.bin"
		}
	]
}
