{
	"asset":{
		"generator":"Khronos glTF Blender I/O v4.0.44",
		"version":"2.0"
	},
	"scene":0,
	"scenes":[
		{
			"name":"Scene",
			"nodes":[
				4
			]
		}
	],
	"nodes":[
		{
			"mesh":0,
			"name":"pCylinder10_lambert37_0",
			"scale":[
				0.3499999940395355,
				0.3499999940395355,
				0.3499999940395355
			],
			"translation":[
				0,
				-2.240000009536743,
				0
			]
		},
		{
			"children":[
				0
			],
			"name":"pCylinder10"
		},
		{
			"children":[
				1
			],
			"name":"RootNode"
		},
		{
			"children":[
				2
			],
			"name":"BillCipher.fbx",
			"rotation":[
				0.70710688829422,
				0,
				0,
				0.7071066498756409
			]
		},
		{
			"children":[
				3
			],
			"name":"Sketchfab_model",
			"rotation":[
				-0.70710688829422,
				0,
				0,
				0.7071066498756409
			]
		}
	],
	"materials":[
		{
			"doubleSided":true,
			"name":"lambert37",
			"pbrMetallicRoughness":{
				"baseColorTexture":{
					"index":0
				},
				"metallicFactor":0,
				"roughnessFactor":0.6000000238418579
			}
		}
	],
	"meshes":[
		{
			"name":"pCylinder10_lambert37_0",
			"primitives":[
				{
					"attributes":{
						"POSITION":0,
						"NORMAL":1,
						"TEXCOORD_0":2
					},
					"indices":3,
					"material":0
				}
			]
		}
	],
	"textures":[
		{
			"sampler":0,
			"source":0
		}
	],
	"images":[
		{
			"mimeType":"image/png",
			"name":"lambert37_baseColor",
			"uri":"lambert37_baseColor.png"
		}
	],
	"accessors":[
		{
			"bufferView":0,
			"componentType":5126,
			"count":2500,
			"max":[
				4.314483642578125,
				12.92783260345459,
				0.9906893968582153
			],
			"min":[
				-4.314483642578125,
				1.353659749031067,
				-1.5396082401275635
			],
			"type":"VEC3"
		},
		{
			"bufferView":1,
			"componentType":5126,
			"count":2500,
			"type":"VEC3"
		},
		{
			"bufferView":2,
			"componentType":5126,
			"count":2500,
			"type":"VEC2"
		},
		{
			"bufferView":3,
			"componentType":5123,
			"count":11322,
			"type":"SCALAR"
		}
	],
	"bufferViews":[
		{
			"buffer":0,
			"byteLength":30000,
			"byteOffset":0,
			"target":34962
		},
		{
			"buffer":0,
			"byteLength":30000,
			"byteOffset":30000,
			"target":34962
		},
		{
			"buffer":0,
			"byteLength":20000,
			"byteOffset":60000,
			"target":34962
		},
		{
			"buffer":0,
			"byteLength":22644,
			"byteOffset":80000,
			"target":34963
		}
	],
	"samplers":[
		{
			"magFilter":9729,
			"minFilter":9987
		}
	],
	"buffers":[
		{
			"byteLength":102644,
			"uri":"scene.bin"
		}
	]
}
