{
	"asset":{
		"generator":"Khronos glTF Blender I/O v4.0.44",
		"version":"2.0"
	},
	"scene":0,
	"scenes":[
		{
			"name":"Scene",
			"nodes":[
				6
			]
		}
	],
	"nodes":[
		{
			"mesh":0,
			"name":"Object_4",
			"scale":[
				8,
				8,
				8
			]
		},
		{
			"children":[
				0
			],
			"name":"Eye_0",
			"rotation":[
				0.70710688829422,
				0,
				0,
				0.7071066498756409
			]
		},
		{
			"mesh":1,
			"name":"Object_7",
			"scale":[
				8,
				8,
				8
			]
		},
		{
			"children":[
				2
			],
			"name":"Iris_1",
			"rotation":[
				0.70710688829422,
				0,
				0,
				0.7071066498756409
			],
			"translation":[
				0,
				0,
				-0.11305926740169525
			]
		},
		{
			"children":[
				1,
				3
			],
			"name":"GLTF_SceneRootNode",
			"rotation":[
				0.70710688829422,
				0,
				0,
				0.7071066498756409
			]
		},
		{
			"children":[
				4
			],
			"name":"root"
		},
		{
			"children":[
				5
			],
			"name":"Sketchfab_model",
			"rotation":[
				-0.70710688829422,
				0,
				0,
				0.7071066498756409
			],
			"scale":[
				0.12435270845890045,
				0.12435271590948105,
				0.12435271590948105
			]
		}
	],
	"materials":[
		{
			"doubleSided":true,
			"name":"Scalera",
			"pbrMetallicRoughness":{
				"baseColorTexture":{
					"index":0
				},
				"metallicFactor":0.12658199667930603,
				"roughnessFactor":0.09291264414787292
			}
		},
		{
			"doubleSided":true,
			"emissiveFactor":[
				0.3211091458797455,
				0.3211091458797455,
				0.3211091458797455
			],
			"emissiveTexture":{
				"index":1
			},
			"name":"Iris",
			"pbrMetallicRoughness":{
				"baseColorFactor":[
					0.5428454875946045,
					0.5428454875946045,
					0.5428454875946045,
					1
				],
				"baseColorTexture":{
					"index":2
				},
				"roughnessFactor":0.4759635627269745
			}
		}
	],
	"meshes":[
		{
			"name":"Object_0",
			"primitives":[
				{
					"attributes":{
						"POSITION":0,
						"NORMAL":1,
						"TEXCOORD_0":2,
						"TEXCOORD_1":3
					},
					"indices":4,
					"material":0
				}
			]
		},
		{
			"name":"Object_2",
			"primitives":[
				{
					"attributes":{
						"POSITION":5,
						"NORMAL":6,
						"TEXCOORD_0":7,
						"TEXCOORD_1":8,
						"TEXCOORD_2":9
					},
					"indices":10,
					"material":1
				}
			]
		}
	],
	"textures":[
		{
			"sampler":0,
			"source":0
		},
		{
			"sampler":0,
			"source":1
		},
		{
			"sampler":0,
			"source":1
		}
	],
	"images":[
		{
			"mimeType":"image/jpeg",
			"name":"Scalera_baseColor",
			"uri":"Scalera_baseColor.jpg"
		},
		{
			"mimeType":"image/png",
			"name":"Iris_baseColor",
			"uri":"Iris_baseColor.png"
		}
	],
	"accessors":[
		{
			"bufferView":0,
			"componentType":5126,
			"count":4019,
			"max":[
				0.9994874000549316,
				0.90272456407547,
				1.0000025033950806
			],
			"min":[
				-0.9994862079620361,
				-1,
				-1
			],
			"type":"VEC3"
		},
		{
			"bufferView":1,
			"componentType":5126,
			"count":4019,
			"type":"VEC3"
		},
		{
			"bufferView":2,
			"componentType":5126,
			"count":4019,
			"type":"VEC2"
		},
		{
			"bufferView":3,
			"componentType":5126,
			"count":4019,
			"type":"VEC2"
		},
		{
			"bufferView":4,
			"componentType":5123,
			"count":23814,
			"type":"SCALAR"
		},
		{
			"bufferView":5,
			"componentType":5126,
			"count":2914,
			"max":[
				0.4997442662715912,
				0.866025447845459,
				0.5000023245811462
			],
			"min":[
				-0.49974367022514343,
				0.7046420574188232,
				-0.4999999701976776
			],
			"type":"VEC3"
		},
		{
			"bufferView":6,
			"componentType":5126,
			"count":2914,
			"type":"VEC3"
		},
		{
			"bufferView":7,
			"componentType":5126,
			"count":2914,
			"type":"VEC2"
		},
		{
			"bufferView":8,
			"componentType":5126,
			"count":2914,
			"type":"VEC2"
		},
		{
			"bufferView":9,
			"componentType":5126,
			"count":2914,
			"type":"VEC2"
		},
		{
			"bufferView":10,
			"componentType":5123,
			"count":4110,
			"type":"SCALAR"
		}
	],
	"bufferViews":[
		{
			"buffer":0,
			"byteLength":48228,
			"byteOffset":0,
			"target":34962
		},
		{
			"buffer":0,
			"byteLength":48228,
			"byteOffset":48228,
			"target":34962
		},
		{
			"buffer":0,
			"byteLength":32152,
			"byteOffset":96456,
			"target":34962
		},
		{
			"buffer":0,
			"byteLength":32152,
			"byteOffset":128608,
			"target":34962
		},
		{
			"buffer":0,
			"byteLength":47628,
			"byteOffset":160760,
			"target":34963
		},
		{
			"buffer":0,
			"byteLength":34968,
			"byteOffset":208388,
			"target":34962
		},
		{
			"buffer":0,
			"byteLength":34968,
			"byteOffset":243356,
			"target":34962
		},
		{
			"buffer":0,
			"byteLength":23312,
			"byteOffset":278324,
			"target":34962
		},
		{
			"buffer":0,
			"byteLength":23312,
			"byteOffset":301636,
			"target":34962
		},
		{
			"buffer":0,
			"byteLength":23312,
			"byteOffset":324948,
			"target":34962
		},
		{
			"buffer":0,
			"byteLength":8220,
			"byteOffset":348260,
			"target":34963
		}
	],
	"samplers":[
		{
			"magFilter":9729,
			"minFilter":9987
		}
	],
	"buffers":[
		{
			"byteLength":356480,
			"uri":"scene.bin"
		}
	]
}
