{
  "accessors": [
    {
      "bufferView": 2,
      "componentType": 5126,
      "count": 2806,
      "max": [
        0.9872313141822815,
        0.9872313737869263,
        1.1018710136413574
      ],
      "min": [
        -0.9872308969497681,
        -0.9872313141822815,
        -0.9975765347480774
      ],
      "type": "VEC3"
    },
    {
      "bufferView": 2,
      "byteOffset": 33672,
      "componentType": 5126,
      "count": 2806,
      "max": [
        1.0,
        1.0,
        0.9999476671218872
      ],
      "min": [
        -1.0,
        -1.0,
        -1.0
      ],
      "type": "VEC3"
    },
    {
      "bufferView": 1,
      "componentType": 5126,
      "count": 2806,
      "max": [
        1.0000003576278687,
        0.9375002980232239
      ],
      "min": [
        0.0,
        0.0
      ],
      "type": "VEC2"
    },
    {
      "bufferView": 0,
      "componentType": 5125,
      "count": 12864,
      "type": "SCALAR"
    },
    {
      "bufferView": 2,
      "byteOffset": 67344,
      "componentType": 5126,
      "count": 49152,
      "max": [
        0.46036913990974426,
        0.4576505422592163,
        0.9481333494186401
      ],
      "min": [
        -0.4529077708721161,
        -0.4555046558380127,
        0.8779675960540771
      ],
      "type": "VEC3"
    },
    {
      "bufferView": 2,
      "byteOffset": 657168,
      "componentType": 5126,
      "count": 49152,
      "max": [
        0.6515583395957947,
        0.5124058723449707,
        0.9999997019767761
      ],
      "min": [
        -0.6321488618850708,
        -0.5855709910392761,
        0.6894272565841675
      ],
      "type": "VEC3"
    },
    {
      "bufferView": 3,
      "componentType": 5126,
      "count": 49152,
      "max": [
        1.0,
        0.07663652300834656,
        0.6463468074798584,
        1.0
      ],
      "min": [
        0.7580312490463257,
        -0.06518971920013428,
        -0.6522170305252075,
        1.0
      ],
      "type": "VEC4"
    },
    {
      "bufferView": 1,
      "byteOffset": 22448,
      "componentType": 5126,
      "count": 49152,
      "max": [
        1.0000348091125488,
        0.9960997104644775
      ],
      "min": [
        3.471970558166504e-05,
        -0.003767073154449463
      ],
      "type": "VEC2"
    },
    {
      "bufferView": 1,
      "byteOffset": 415664,
      "componentType": 5126,
      "count": 49152,
      "max": [
        1.0000348091125488,
        0.9960997104644775
      ],
      "min": [
        3.471970558166504e-05,
        -0.003767073154449463
      ],
      "type": "VEC2"
    },
    {
      "bufferView": 0,
      "byteOffset": 51456,
      "componentType": 5125,
      "count": 73728,
      "type": "SCALAR"
    }
  ],
  "asset": {
    "extras": {
      "author": "gamnok (https://sketchfab.com/gamnok)",
      "license": "CC-BY-4.0 (http://creativecommons.org/licenses/by/4.0/)",
      "source": "https://sketchfab.com/3d-models/red-dragon-eyeball-blender-file-d6350354337c4e02984a3d9e7024aeae",
      "title": "Red dragon eyeball - blender file"
    },
    "generator": "Sketchfab-13.52.1",
    "version": "2.0"
  },
  "bufferViews": [
    {
      "buffer": 0,
      "byteLength": 346368,
      "name": "floatBufferViews",
      "target": 34963
    },
    {
      "buffer": 0,
      "byteLength": 808880,
      "byteOffset": 346368,
      "byteStride": 8,
      "name": "floatBufferViews",
      "target": 34962
    },
    {
      "buffer": 0,
      "byteLength": 1246992,
      "byteOffset": 1155248,
      "byteStride": 12,
      "name": "floatBufferViews",
      "target": 34962
    },
    {
      "buffer": 0,
      "byteLength": 786432,
      "byteOffset": 2402240,
      "byteStride": 16,
      "name": "floatBufferViews",
      "target": 34962
    }
  ],
  "buffers": [
    {
      "byteLength": 3188672,
      "uri": "scene.bin"
    }
  ],
  "extensionsUsed": [
    "KHR_materials_transmission"
  ],
  "images": [
    {
      "uri": "textures/eye-red_baseColor.png"
    },
    {
      "uri": "textures/eye-red_transmission.png"
    },
    {
      "uri": "textures/irys-red.001_baseColor.png"
    },
    {
      "uri": "textures/irys-red.001_normal.png"
    }
  ],
  "materials": [
    {
      "alphaMode": "BLEND",
      "doubleSided": true,
      "extensions": {
        "KHR_materials_transmission": {
          "transmissionFactor": 1.0,
          "transmissionTexture": {
            "index": 1
          }
        }
      },
      "name": "eye-red",
      "pbrMetallicRoughness": {
        "baseColorFactor": [
          1.0,
          0.9531770126797224,
          0.8741016688625401,
          1.0
        ],
        "baseColorTexture": {
          "index": 0
        },
        "metallicFactor": 0.010666699174702246,
        "roughnessFactor": 0.14818788019163498
      }
    },
    {
      "emissiveFactor": [
        0.41142982530994376,
        0.41142982530994376,
        0.41142982530994376
      ],
      "emissiveTexture": {
        "index": 2
      },
      "name": "irys-red.001",
      "normalTexture": {
        "index": 3
      },
      "pbrMetallicRoughness": {
        "baseColorTexture": {
          "index": 2
        },
        "metallicFactor": 0.0
      }
    }
  ],
  "meshes": [
    {
      "name": "Object_0",
      "primitives": [
        {
          "attributes": {
            "NORMAL": 1,
            "POSITION": 0,
            "TEXCOORD_0": 2
          },
          "indices": 3,
          "material": 0,
          "mode": 4
        }
      ]
    },
    {
      "name": "Object_1",
      "primitives": [
        {
          "attributes": {
            "NORMAL": 5,
            "POSITION": 4,
            "TANGENT": 6,
            "TEXCOORD_0": 7,
            "TEXCOORD_1": 8
          },
          "indices": 9,
          "material": 1,
          "mode": 4
        }
      ]
    }
  ],
  "nodes": [
    {
      "children": [
        1
      ],
      "matrix": [
        1.0,
        0.0,
        0.0,
        0.0,
        0.0,
        2.220446049250313e-16,
        -1.0,
        0.0,
        0.0,
        1.0,
        2.220446049250313e-16,
        0.0,
        0.0,
        0.0,
        0.0,
        1.0
      ],
      "name": "Sketchfab_model"
    },
    {
      "children": [
        2
      ],
      "name": "root"
    },
    {
      "children": [
        3
      ],
      "matrix": [
        1.0,
        0.0,
        0.0,
        0.0,
        0.0,
        2.220446049250313e-16,
        1.0,
        0.0,
        0.0,
        -1.0,
        2.220446049250313e-16,
        0.0,
        0.0,
        0.0,
        0.0,
        1.0
      ],
      "name": "GLTF_SceneRootNode"
    },
    {
      "children": [
        4,
        5
      ],
      "name": "eye_1"
    },
    {
      "mesh": 0,
      "name": "Object_4"
    },
    {
      "children": [
        6
      ],
      "matrix": [
        1.2300066947937012,
        0.0,
        0.0,
        0.0,
        0.0,
        1.2300066947937012,
        0.0,
        0.0,
        0.0,
        0.0,
        1.2300066947937012,
        0.0,
        0.0,
        0.0,
        -0.31219395995140076,
        1.0
      ],
      "name": "irys-red_0"
    },
    {
      "mesh": 1,
      "name": "Object_6"
    }
  ],
  "samplers": [
    {
      "magFilter": 9729,
      "minFilter": 9987,
      "wrapS": 10497,
      "wrapT": 10497
    }
  ],
  "scene": 0,
  "scenes": [
    {
      "name": "Sketchfab_Scene",
      "nodes": [
        0
      ]
    }
  ],
  "textures": [
    {
      "sampler": 0,
      "source": 0
    },
    {
      "sampler": 0,
      "source": 1
    },
    {
      "sampler": 0,
      "source": 2
    },
    {
      "sampler": 0,
      "source": 3
    }
  ]
}
