{
	"asset":{
		"generator":"Khronos glTF Blender I/O v4.0.44",
		"version":"2.0"
	},
	"scene":0,
	"scenes":[
		{
			"name":"Scene",
			"nodes":[
				3
			]
		}
	],
	"nodes":[
		{
			"mesh":0,
			"name":"defaultMaterial"
		},
		{
			"children":[
				0
			],
			"name":"low"
		},
		{
			"children":[
				1
			],
			"name":"Collada visual scene group",
			"rotation":[
				0.70710688829422,
				0,
				0,
				0.7071066498756409
			]
		},
		{
			"children":[
				2
			],
			"name":"Sketchfab_model",
			"rotation":[
				-0.70710688829422,
				0,
				0,
				0.7071066498756409
			]
		}
	],
	"materials":[
		{
			"alphaCutoff":0.5,
			"alphaMode":"MASK",
			"doubleSided":true,
			"name":"blinn2",
			"normalTexture":{
				"index":0
			},
			"occlusionTexture":{
				"index":1
			},
			"pbrMetallicRoughness":{
				"baseColorTexture":{
					"index":2
				},
				"metallicRoughnessTexture":{
					"index":1
				}
			}
		}
	],
	"meshes":[
		{
			"name":"defaultMaterial",
			"primitives":[
				{
					"attributes":{
						"POSITION":0,
						"NORMAL":1,
						"TEXCOORD_0":2
					},
					"indices":3,
					"material":0
				}
			]
		}
	],
	"textures":[
		{
			"sampler":0,
			"source":0
		},
		{
			"sampler":0,
			"source":1
		},
		{
			"sampler":0,
			"source":2
		}
	],
	"images":[
		{
			"mimeType":"image/png",
			"name":"blinn2_normal",
			"uri":"blinn2_normal.png"
		},
		{
			"mimeType":"image/png",
			"name":"blinn2_metallicRoughness",
			"uri":"blinn2_metallicRoughness.png"
		},
		{
			"mimeType":"image/png",
			"name":"blinn2_baseColor",
			"uri":"blinn2_baseColor.png"
		}
	],
	"accessors":[
		{
			"bufferView":0,
			"componentType":5126,
			"count":687,
			"max":[
				0.9271240234375,
				0.9271240234375,
				1
			],
			"min":[
				-0.9271240234375,
				-0.9271240234375,
				-1
			],
			"type":"VEC3"
		},
		{
			"bufferView":1,
			"componentType":5126,
			"count":687,
			"type":"VEC3"
		},
		{
			"bufferView":2,
			"componentType":5126,
			"count":687,
			"type":"VEC2"
		},
		{
			"bufferView":3,
			"componentType":5123,
			"count":3888,
			"type":"SCALAR"
		}
	],
	"bufferViews":[
		{
			"buffer":0,
			"byteLength":8244,
			"byteOffset":0,
			"target":34962
		},
		{
			"buffer":0,
			"byteLength":8244,
			"byteOffset":8244,
			"target":34962
		},
		{
			"buffer":0,
			"byteLength":5496,
			"byteOffset":16488,
			"target":34962
		},
		{
			"buffer":0,
			"byteLength":7776,
			"byteOffset":21984,
			"target":34963
		}
	],
	"samplers":[
		{
			"magFilter":9729,
			"minFilter":9987
		}
	],
	"buffers":[
		{
			"byteLength":29760,
			"uri":"scene.bin"
		}
	]
}
