{
  "accessors": [
    {
      "bufferView": 2,
      "componentType": 5126,
      "count": 4063,
      "max": [
        661.3795166015625,
        962.5413818359375,
        451.2109375
      ],
      "min": [
        -661.3795166015625,
        0.0,
        -505.1764831542969
      ],
      "type": "VEC3"
    },
    {
      "bufferView": 2,
      "byteOffset": 48756,
      "componentType": 5126,
      "count": 4063,
      "max": [
        0.9999988675117493,
        0.9998561143875122,
        1.0
      ],
      "min": [
        -0.9999988675117493,
        -1.0,
        -1.0
      ],
      "type": "VEC3"
    },
    {
      "bufferView": 1,
      "componentType": 5126,
      "count": 4063,
      "max": [
        0.993595540523529,
        0.6434224247932434
      ],
      "min": [
        0.010474920272827148,
        0.00713425874710083
      ],
      "type": "VEC2"
    },
    {
      "bufferView": 1,
      "byteOffset": 32504,
      "componentType": 5126,
      "count": 4063,
      "max": [
        0.993595540523529,
        0.6434224247932434
      ],
      "min": [
        0.010474920272827148,
        0.00713425874710083
      ],
      "type": "VEC2"
    },
    {
      "bufferView": 0,
      "componentType": 5125,
      "count": 21696,
      "type": "SCALAR"
    }
  ],
  "asset": {
    "extras": {
      "author": "LittleWhiteElk (https://sketchfab.com/LittleWhiteElk)",
      "license": "CC-BY-4.0 (http://creativecommons.org/licenses/by/4.0/)",
      "source": "https://sketchfab.com/3d-models/eyeball-with-legs-0dd9c121b114469d92a0df444924e875",
      "title": "Eyeball with Legs"
    },
    "generator": "Sketchfab-12.65.0",
    "version": "2.0"
  },
  "bufferViews": [
    {
      "buffer": 0,
      "byteLength": 86784,
      "name": "floatBufferViews",
      "target": 34963
    },
    {
      "buffer": 0,
      "byteLength": 65008,
      "byteOffset": 86784,
      "byteStride": 8,
      "name": "floatBufferViews",
      "target": 34962
    },
    {
      "buffer": 0,
      "byteLength": 97512,
      "byteOffset": 151792,
      "byteStride": 12,
      "name": "floatBufferViews",
      "target": 34962
    }
  ],
  "buffers": [
    {
      "byteLength": 249304,
      "uri": "scene.bin"
    }
  ],
  "images": [
    {
      "uri": "textures/EyeMonMAT_baseColor.png"
    },
    {
      "uri": "textures/EyeMonMAT_metallicRoughness.png"
    }
  ],
  "materials": [
    {
      "doubleSided": true,
      "name": "EyeMonMAT",
      "pbrMetallicRoughness": {
        "baseColorTexture": {
          "index": 0
        },
        "metallicFactor": 0.0,
        "metallicRoughnessTexture": {
          "index": 1
        }
      }
    }
  ],
  "meshes": [
    {
      "name": "EyeMonster_EyeMonMAT_0",
      "primitives": [
        {
          "attributes": {
            "NORMAL": 1,
            "POSITION": 0,
            "TEXCOORD_0": 2,
            "TEXCOORD_1": 3
          },
          "indices": 4,
          "material": 0,
          "mode": 4
        }
      ]
    }
  ],
  "nodes": [
    {
      "children": [
        1
      ],
      "matrix": [
        1.0,
        0.0,
        0.0,
        0.0,
        0.0,
        2.220446049250313e-16,
        -1.0,
        0.0,
        0.0,
        1.0,
        2.220446049250313e-16,
        0.0,
        0.0,
        0.0,
        0.0,
        1.0
      ],
      "name": "Sketchfab_model"
    },
    {
      "children": [
        2
      ],
      "matrix": [
        1.0,
        0.0,
        0.0,
        0.0,
        0.0,
        0.0,
        1.0,
        0.0,
        0.0,
        -1.0,
        0.0,
        0.0,
        0.0,
        0.0,
        0.0,
        1.0
      ],
      "name": "a640b672b7364952bebe6d976e00de9c.fbx"
    },
    {
      "children": [
        3
      ],
      "name": "RootNode"
    },
    {
      "children": [
        4
      ],
      "name": "EyeMonster"
    },
    {
      "mesh": 0,
      "name": "EyeMonster_EyeMonMAT_0"
    }
  ],
  "samplers": [
    {
      "magFilter": 9729,
      "minFilter": 9987,
      "wrapS": 10497,
      "wrapT": 10497
    }
  ],
  "scene": 0,
  "scenes": [
    {
      "name": "Sketchfab_Scene",
      "nodes": [
        0
      ]
    }
  ],
  "textures": [
    {
      "sampler": 0,
      "source": 0
    },
    {
      "sampler": 0,
      "source": 1
    }
  ]
}
