{
	"asset":{
		"generator":"Khronos glTF Blender I/O v4.0.44",
		"version":"2.0"
	},
	"scene":0,
	"scenes":[
		{
			"name":"Scene",
			"nodes":[
				4
			]
		}
	],
	"nodes":[
		{
			"mesh":0,
			"name":"EyeMonster_EyeMonMAT_0",
			"rotation":[
				0,
				0.9701425433158875,
				0,
				0.24253560602664948
			],
			"scale":[
				0.007000001613050699,
				0.007000000216066837,
				0.007000001613050699
			],
			"translation":[
				0,
				-3.5,
				0
			]
		},
		{
			"children":[
				0
			],
			"name":"EyeMonster"
		},
		{
			"children":[
				1
			],
			"name":"RootNode"
		},
		{
			"children":[
				2
			],
			"name":"a640b672b7364952bebe6d976e00de9c.fbx",
			"rotation":[
				0.70710688829422,
				0,
				0,
				0.7071066498756409
			]
		},
		{
			"children":[
				3
			],
			"name":"Sketchfab_model",
			"rotation":[
				-0.70710688829422,
				0,
				0,
				0.7071066498756409
			]
		}
	],
	"materials":[
		{
			"doubleSided":true,
			"name":"EyeMonMAT",
			"pbrMetallicRoughness":{
				"baseColorTexture":{
					"index":0
				},
				"metallicFactor":0,
				"metallicRoughnessTexture":{
					"index":1
				}
			}
		}
	],
	"meshes":[
		{
			"name":"EyeMonster_EyeMonMAT_0",
			"primitives":[
				{
					"attributes":{
						"POSITION":0,
						"NORMAL":1,
						"TEXCOORD_0":2,
						"TEXCOORD_1":3
					},
					"indices":4,
					"material":0
				}
			]
		}
	],
	"textures":[
		{
			"sampler":0,
			"source":0
		},
		{
			"sampler":0,
			"source":1
		}
	],
	"images":[
		{
			"mimeType":"image/png",
			"name":"EyeMonMAT_baseColor",
			"uri":"EyeMonMAT_baseColor.png"
		},
		{
			"mimeType":"image/png",
			"name":"EyeMonMAT_metallicRoughness",
			"uri":"EyeMonMAT_metallicRoughness.png"
		}
	],
	"accessors":[
		{
			"bufferView":0,
			"componentType":5126,
			"count":4075,
			"max":[
				661.3795166015625,
				962.5413818359375,
				451.2109375
			],
			"min":[
				-661.3795166015625,
				0,
				-505.1764831542969
			],
			"type":"VEC3"
		},
		{
			"bufferView":1,
			"componentType":5126,
			"count":4075,
			"type":"VEC3"
		},
		{
			"bufferView":2,
			"componentType":5126,
			"count":4075,
			"type":"VEC2"
		},
		{
			"bufferView":3,
			"componentType":5126,
			"count":4075,
			"type":"VEC2"
		},
		{
			"bufferView":4,
			"componentType":5123,
			"count":21696,
			"type":"SCALAR"
		}
	],
	"bufferViews":[
		{
			"buffer":0,
			"byteLength":48900,
			"byteOffset":0,
			"target":34962
		},
		{
			"buffer":0,
			"byteLength":48900,
			"byteOffset":48900,
			"target":34962
		},
		{
			"buffer":0,
			"byteLength":32600,
			"byteOffset":97800,
			"target":34962
		},
		{
			"buffer":0,
			"byteLength":32600,
			"byteOffset":130400,
			"target":34962
		},
		{
			"buffer":0,
			"byteLength":43392,
			"byteOffset":163000,
			"target":34963
		}
	],
	"samplers":[
		{
			"magFilter":9729,
			"minFilter":9987
		}
	],
	"buffers":[
		{
			"byteLength":206392,
			"uri":"scene.bin"
		}
	]
}
